<?xml version="1.0" encoding="utf-8"?>
<!-- Generator: Adobe Illustrator 16.0.0, SVG Export Plug-In . SVG Version: 6.00 Build 0)  -->
<!DOCTYPE svg PUBLIC "-//W3C//DTD SVG 1.1//EN" "http://www.w3.org/Graphics/SVG/1.1/DTD/svg11.dtd">
<svg version="1.1" xmlns="http://www.w3.org/2000/svg" xmlns:xlink="http://www.w3.org/1999/xlink" x="0px" y="0px" width="4096px"
	 height="4096px" viewBox="0 0 4096 4096" enable-background="new 0 0 4096 4096" xml:space="preserve">
<g id="Cuerpo">
	<path fill="none" stroke="#000000" stroke-width="29" stroke-miterlimit="10" shape-rendering="auto" d="M1087,2987c0,0-26.385-602.055,417.615-910.055
		c0,0-173.615-437.945-95.615-717.945c120.416-432.263,501.667-424.137,645.778-426c110.72-1.431,559.05,1.68,648.222,452
		c40,202-36,530-106,686c234,192,430.141,520,426,916"/>
</g>
<g id="Layer_6">
	<g>
		<circle cx="2048" cy="1708.584" r="72.68" shape-rendering="auto"/>
		<path shape-rendering="auto" d="M1456.535,1233.756c0,0,680.172,239.282,1173.318-41.737c84.139,182.453,78.303,181.298,84.139,326.981
			c-386.992-132-936.594-161.772-1324.594-23.772C1411.398,1321.228,1433,1243,1456.535,1233.756z"/>
	</g>
</g>
<g id="Bigotes_copy">
	<g>
		<g>
			<path shape-rendering="auto" d="M2168.392,1708.006c0,0,356.328-164.762,638.55-121.403v3.897c0,0-263.441-34.5-595.98,109.623
				c0,0,281.039-73.623,533.039-5.123l-1.647,4.951c0,0-207.353-69.451-542.429,15.938c0,0,329.076,11.61,568.151,166.504
				l-4.081,3.617c0,0-264.494-164.011-595.603-158.296"/>
			<path shape-rendering="auto" d="M2168.392,1708.006c0,0,356.328-164.762,638.55-121.403v3.897c0,0-263.441-34.5-595.98,109.623
				c0,0,281.039-73.623,533.039-5.123l-1.647,4.951c0,0-207.353-69.451-542.429,15.938c0,0,329.076,11.61,568.151,166.504
				l-4.081,3.617c0,0-264.494-164.011-595.603-158.296"/>
			<path shape-rendering="auto" d="M2168.392,1708.006c0,0,356.328-164.762,638.55-121.403v3.897c0,0-263.441-34.5-595.98,109.623
				c0,0,281.039-73.623,533.039-5.123l-1.647,4.951c0,0-207.353-69.451-542.429,15.938c0,0,329.076,11.61,568.151,166.504
				l-4.081,3.617c0,0-264.494-164.011-595.603-158.296"/>
		</g>
		<g>
			<path shape-rendering="auto" d="M1935.633,1708.931c0,0-356.74-163.868-638.852-119.802l0.009,3.897c0,0,263.354-35.16,596.254,108.128
				c0,0-281.224-72.918-533.05-3.787l1.66,4.947c0,0,207.177-69.97,542.466,14.579c0,0-329.046,12.435-567.731,167.927l4.089,3.607
				c0,0,264.082-164.673,595.205-159.789"/>
			<path shape-rendering="auto" d="M1935.633,1708.931c0,0-356.74-163.868-638.852-119.802l0.009,3.897c0,0,263.354-35.16,596.254,108.128
				c0,0-281.224-72.918-533.05-3.787l1.66,4.947c0,0,207.177-69.97,542.466,14.579c0,0-329.046,12.435-567.731,167.927l4.089,3.607
				c0,0,264.082-164.673,595.205-159.789"/>
			<path shape-rendering="auto" d="M1935.633,1708.931c0,0-356.74-163.868-638.852-119.802l0.009,3.897c0,0,263.354-35.16,596.254,108.128
				c0,0-281.224-72.918-533.05-3.787l1.66,4.947c0,0,207.177-69.97,542.466,14.579c0,0-329.046,12.435-567.731,167.927l4.089,3.607
				c0,0,264.082-164.673,595.205-159.789"/>
		</g>
	</g>
</g>
<g id="Layer_8_copy">
	<g>
		<polygon shape-rendering="auto" points="3023.064,725 3249,885 2659,1227 3005,1107 3103,1263 2681,1291 2629.854,1192.019 		"/>
	</g>
	<g>
		<path shape-rendering="auto" d="M2192.084,2010.592h170.991c0,0,262.486,565.477,50.997,1187.941h-11.999
			C2402.073,3198.533,2498.871,2655.533,2192.084,2010.592z"/>
		<path shape-rendering="auto" d="M1896.592,2011.6l-170.989-0.896c0,0-265.447,564.093-57.226,1187.657l11.998,0.063
			C1680.375,3198.423,1586.427,2654.923,1896.592,2011.6z"/>
	</g>
</g>
<g id="Layer_12_copy">
	<g>
		<path shape-rendering="auto" d="M2665,2137l195-334l-89-60c0,0-16.872-70.059,52-66l66.351,44.152L3242,1107c0,0-1-10,37,13s90,61,90,61l-16,26l-28,52
			l-313,544l74,48c0,0,33.281,76.121-45,72l-85-54l-216,349L2665,2137z"/>
		<polygon shape-rendering="auto" fill="#FFFFFF" points="2853.147,1814.737 2860,1803 2956,1869 2948.842,1880.566 		"/>
		<polygon shape-rendering="auto" fill="#FFFFFF" points="2889.351,1721.152 2898.486,1705.242 3024.355,1781.525 3012,1803 		"/>
		<polygon shape-rendering="auto" fill="#FFFFFF" points="3195.326,1188.284 3201.733,1177.098 3332.566,1245.035 3325,1259 		"/>
		<polygon shape-rendering="auto" fill="#FFFFFF" points="3215.319,1153.466 3226.552,1133.904 3353.633,1205.971 3344.134,1223.466 		"/>
		<polygon shape-rendering="auto" fill="#FFFFFF" points="2966.434,1661.605 3002.432,1662.492 3019.811,1691.042 2985.408,1691.042 		"/>
		<polygon shape-rendering="auto" fill="#FFFFFF" points="2997.639,1606.304 3033.637,1607.19 3051.016,1635.741 3016.613,1635.741 		"/>
		<polygon shape-rendering="auto" fill="#FFFFFF" points="3038.78,1544.946 3074.778,1545.833 3092.157,1574.384 3057.755,1574.384 		"/>
		<polygon shape-rendering="auto" fill="#FFFFFF" points="3070.168,1488.377 3106.166,1489.264 3123.545,1517.814 3089.143,1517.814 		"/>
		<polygon shape-rendering="auto" fill="#FFFFFF" points="3104.748,1432.692 3140.746,1433.579 3158.125,1462.129 3123.723,1462.129 		"/>
		<polygon shape-rendering="auto" fill="#FFFFFF" points="3135.959,1376.832 3171.957,1377.718 3189.336,1406.269 3154.934,1406.269 		"/>
		<polygon shape-rendering="auto" fill="#FFFFFF" points="3168.943,1318.844 3204.941,1319.73 3222.32,1348.281 3187.918,1348.281 		"/>
		<polygon shape-rendering="auto" fill="#FFFFFF" points="3199.267,1263.692 3235.265,1264.579 3252.644,1293.13 3218.241,1293.13 		"/>
	</g>
	<g>
		<path shape-rendering="auto" d="M1448.582,2113.858l-207.734-326.231l86.621-63.388c0,0,14.157-70.658-54.507-63.946l-64.599,46.679l-376.07-600.097
			c0,0,0.614-10.031-36.471,14.417s-87.58,64.425-87.58,64.425l16.99,25.364l29.984,50.881l333.744,531.525l-72.094,50.818
			c0,0-30.32,77.348,47.743,70.212l82.855-57.238l229.297,340.412L1448.582,2113.858z"/>
		<polygon shape-rendering="auto" fill="#FFFFFF" points="1248.148,1799.09 1240.848,1787.627 1147.465,1857.279 1155.063,1868.561 		"/>
		<polygon shape-rendering="auto" fill="#FFFFFF" points="1208.363,1706.972 1198.621,1691.425 1075.787,1772.505 1088.961,1793.487 		"/>
		<polygon shape-rendering="auto" fill="#FFFFFF" points="882.067,1186.298 875.233,1175.368 747.117,1248.299 755.217,1261.962 		"/>
		<polygon shape-rendering="auto" fill="#FFFFFF" points="860.747,1152.277 848.768,1133.164 724.561,1210.077 734.728,1227.192 		"/>
		<polygon shape-rendering="auto" fill="#FFFFFF" points="1129.041,1650.441 1093.104,1652.715 1076.84,1681.915 1111.217,1680.588 		"/>
		<polygon shape-rendering="auto" fill="#FFFFFF" points="1095.727,1596.384 1059.789,1598.659 1043.525,1627.858 1077.901,1626.531 		"/>
		<polygon shape-rendering="auto" fill="#FFFFFF" points="1052.25,1536.659 1016.313,1538.933 1000.048,1568.133 1034.425,1566.806 		"/>
		<polygon shape-rendering="auto" fill="#FFFFFF" points="1018.704,1481.342 982.768,1483.616 966.502,1512.816 1000.879,1511.489 		"/>
		<polygon shape-rendering="auto" fill="#FFFFFF" points="982.002,1427.031 946.065,1429.306 929.8,1458.506 964.177,1457.179 		"/>
		<polygon shape-rendering="auto" fill="#FFFFFF" points="948.661,1372.416 912.724,1374.69 896.459,1403.891 930.836,1402.564 		"/>
		<polygon shape-rendering="auto" fill="#FFFFFF" points="913.464,1315.744 877.528,1318.018 861.263,1347.218 895.64,1345.891 		"/>
		<polygon shape-rendering="auto" fill="#FFFFFF" points="881.037,1261.803 845.101,1264.077 828.835,1293.276 863.212,1291.95 		"/>
	</g>
</g>
<g id="Layer_7">
	<text transform="matrix(1 0 0 1 1420.4785 641)" fill="#6F171A" font-size="620" style="font-family: 'MeatDepreciationAristocracy'; font-weight:normal; font-style: normal">ninja</text>
	<g>
		<text transform="matrix(1 0 0 1 1198.6787 3845)" fill="#6F171A" font-size="620">walrus</text>
	</g>
</g>
</svg>
